HIERARCHY
ROOT Hips
{
	OFFSET -0.001795 -0.223333 0.028219
	CHANNELS 6 Xposition Yposition Zposition Zrotation Yrotation Xrotation 
	JOINT LeftUpLeg
	{
		OFFSET 0.069520 -0.091406 -0.006815
		CHANNELS 3 Zrotation Yrotation Xrotation
		JOINT LeftLeg
		{
			OFFSET 0.034277 -0.375199 -0.004496
			CHANNELS 3 Zrotation Yrotation Xrotation
			JOINT LeftFoot
			{
				OFFSET -0.013596 -0.397961 -0.043693
				CHANNELS 3 Zrotation Yrotation Xrotation
				JOINT LeftToe
				{
					OFFSET 0.026358 -0.055791 0.119288
					CHANNELS 3 Zrotation Yrotation Xrotation
					End Site
					{
						OFFSET 0.000000 0.000000 0.000000
					}
				}
			}
		}
	}
	JOINT RightUpLeg
	{
		OFFSET -0.067670 -0.090522 -0.004320
		CHANNELS 3 Zrotation Yrotation Xrotation
		JOINT RightLeg
		{
			OFFSET -0.038290 -0.382569 -0.008850
			CHANNELS 3 Zrotation Yrotation Xrotation
			JOINT RightFoot
			{
				OFFSET 0.015774 -0.398415 -0.042312
				CHANNELS 3 Zrotation Yrotation Xrotation
				JOINT RightToe
				{
					OFFSET -0.025372 -0.048144 0.123348
					CHANNELS 3 Zrotation Yrotation Xrotation
					End Site
					{
						OFFSET 0.000000 0.000000 0.000000
					}
				}
			}
		}
	}
	JOINT Spine
	{
		OFFSET -0.002533 0.108963 -0.026696
		CHANNELS 3 Zrotation Yrotation Xrotation
		JOINT Spine1
		{
			OFFSET 0.005487 0.135180 0.001092
			CHANNELS 3 Zrotation Yrotation Xrotation
			JOINT Spine2
			{
				OFFSET 0.001457 0.052922 0.025425
				CHANNELS 3 Zrotation Yrotation Xrotation
				JOINT Neck
				{
					OFFSET -0.002778 0.213870 -0.042857
					CHANNELS 3 Zrotation Yrotation Xrotation
					JOINT Head
					{
						OFFSET 0.005152 0.064970 0.051349
						CHANNELS 3 Zrotation Yrotation Xrotation
						End Site
						{
							OFFSET 0.000000 0.000000 0.000000
						}
					}
				}
				JOINT LeftShoulder
				{
					OFFSET 0.078845 0.121749 -0.034090
					CHANNELS 3 Zrotation Yrotation Xrotation
					JOINT LeftArm
					{
						OFFSET 0.090977 0.030469 -0.008868
						CHANNELS 3 Zrotation Yrotation Xrotation
						JOINT LeftForeArm
						{
							OFFSET 0.259612 -0.012772 -0.027456
							CHANNELS 3 Zrotation Yrotation Xrotation
							JOINT LeftHand
							{
								OFFSET 0.249234 0.008986 -0.001171
								CHANNELS 3 Zrotation Yrotation Xrotation
								End Site
								{
									OFFSET 0.000000 0.000000 0.000000
								}
							}
						}
					}
				}
				JOINT RightShoulder
				{
					OFFSET -0.081759 0.118833 -0.038615
					CHANNELS 3 Zrotation Yrotation Xrotation
					JOINT RightArm
					{
						OFFSET -0.096012 0.032551 -0.009143
						CHANNELS 3 Zrotation Yrotation Xrotation
						JOINT RightForeArm
						{
							OFFSET -0.253742 -0.013329 -0.021401
							CHANNELS 3 Zrotation Yrotation Xrotation
							JOINT RightHand
							{
								OFFSET -0.255298 0.007772 -0.005559
								CHANNELS 3 Zrotation Yrotation Xrotation
								End Site
								{
									OFFSET 0.000000 0.000000 0.000000
								}
							}
						}
					}
				}
			}
		}
	}
}
MOTION
Frames: 14
Frame Time: 0.050000
-0.154966 0.955451 0.945491 -5.870586 -36.637456 17.510814 2.740708 0.433656 -23.102439 -3.483099 1.183016 8.508303 10.189823 18.210715 9.043012 0.000000 0.000000 0.000000 -0.567451 3.354722 -22.754472 3.352072 0.411820 9.096904 -2.688108 -11.377554 6.632399 0.000000 0.000000 0.000000 0.962349 3.526392 39.323796 -7.301870 1.673039 -19.417430 -8.084558 -5.237092 28.270843 4.567056 -4.547673 -21.263818 0.000000 0.000000 0.000000 -15.798638 -26.125678 18.394656 -13.943700 -37.942913 -0.317384 54.469423 -27.832031 -10.541769 0.000000 0.000000 0.000000 23.458754 1.645175 -8.988598 59.091299 -9.617203 -11.417287 38.471072 51.197308 15.689962 0.000000 0.000000 0.000000 
-0.155028 0.955694 0.944367 -5.795117 -36.405885 17.503887 2.845345 0.460413 -23.294532 -3.568336 1.203831 8.576266 10.136224 18.088603 9.170686 0.000000 0.000000 0.000000 -0.409478 3.358798 -22.749646 3.320610 0.398250 8.940694 -2.887731 -11.852891 6.794711 0.000000 0.000000 0.000000 0.926535 3.522234 39.423231 -7.388313 1.695728 -19.436768 -8.101128 -4.967076 28.089356 4.569892 -4.525703 -20.724440 0.000000 0.000000 0.000000 -16.691781 -26.481758 18.908401 -13.508445 -38.064032 -0.482058 54.412330 -28.138765 -10.790014 0.000000 0.000000 0.000000 24.089434 1.450694 -9.160329 58.697586 -9.676335 -11.259337 37.913847 51.286955 15.621293 0.000000 0.000000 0.000000 
-0.154992 0.955777 0.943526 -5.917130 -36.450152 17.706423 3.035672 0.550069 -23.631265 -3.583802 1.231277 8.830794 10.097242 18.022568 9.090418 0.000000 0.000000 0.000000 -0.325196 3.392106 -22.850993 3.512674 0.384526 8.941006 -2.983301 -12.059661 6.823585 0.000000 0.000000 0.000000 0.710187 3.662610 39.612344 -7.430608 1.698258 -19.588396 -8.100478 -4.828892 28.099375 4.551281 -4.498752 -20.614588 0.000000 0.000000 0.000000 -17.259478 -26.584300 19.202944 -13.055047 -38.058772 -0.636089 54.416582 -28.596585 -11.078287 0.000000 0.000000 0.000000 24.614096 1.627287 -9.202950 58.294663 -9.671407 -11.060069 37.290495 51.273499 15.391457 0.000000 0.000000 0.000000 
-0.154899 0.955902 0.942755 -5.972964 -36.371178 17.795747 3.206287 0.629417 -23.982999 -3.611763 1.260768 9.104395 10.041431 17.865975 9.240988 0.000000 0.000000 0.000000 -0.290102 3.394210 -22.854714 3.668968 0.369751 8.915114 -3.093696 -12.460823 7.148092 0.000000 0.000000 0.000000 0.714899 3.703616 39.871466 -7.610183 1.748048 -19.520013 -8.004757 -4.825869 27.846278 4.645875 -4.518285 -20.741277 0.000000 0.000000 0.000000 -18.030777 -27.039395 19.794494 -12.732443 -38.045389 -0.755648 54.338721 -29.085813 -11.391658 0.000000 0.000000 0.000000 25.078029 1.746287 -9.261267 57.971725 -9.769012 -10.912351 36.335826 51.469044 15.059381 0.000000 0.000000 0.000000 
-0.154665 0.955773 0.942082 -6.017180 -36.351656 17.977583 3.346108 0.713366 -24.393385 -3.643188 1.296678 9.414649 10.171357 18.044195 9.368986 0.000000 0.000000 0.000000 -0.274461 3.435551 -23.023881 3.844760 0.360757 8.973675 -3.277599 -12.940874 7.363873 0.000000 0.000000 0.000000 0.573439 3.796613 40.013491 -7.504504 1.720372 -19.425666 -8.113760 -4.890711 27.588185 4.630272 -4.495982 -20.623316 0.000000 0.000000 0.000000 -18.521764 -27.155823 20.099011 -12.565926 -38.032294 -0.822953 54.130537 -29.646691 -11.651868 0.000000 0.000000 0.000000 25.331616 1.906940 -9.269129 57.952713 -9.698809 -10.796592 35.404949 51.557101 14.653876 0.000000 0.000000 0.000000 
-0.154317 0.955795 0.941473 -6.124029 -36.093679 18.150135 3.514877 0.783321 -24.750752 -3.651800 1.320356 9.729530 10.003291 17.779610 9.253324 0.000000 0.000000 0.000000 -0.228923 3.448027 -23.083851 3.991146 0.346435 8.986016 -3.442819 -13.331127 7.516679 0.000000 0.000000 0.000000 0.724451 3.748729 40.297724 -7.764951 1.787355 -19.625023 -8.002768 -5.095793 27.613209 4.422304 -4.396174 -20.396915 0.000000 0.000000 0.000000 -18.868585 -27.448527 20.449080 -12.383946 -38.124291 -0.885547 53.832260 -30.395418 -11.976873 0.000000 0.000000 0.000000 25.680503 2.095288 -9.308800 57.741039 -9.649669 -10.646633 34.737466 51.555183 14.355792 0.000000 0.000000 0.000000 
-0.153766 0.955679 0.941140 -6.050077 -35.852146 18.179910 3.629815 0.823152 -25.003144 -3.813468 1.365720 9.822556 10.153948 18.051406 9.298753 0.000000 0.000000 0.000000 -0.267021 3.462351 -23.191882 3.911456 0.346632 8.974410 -3.514006 -13.577960 7.726006 0.000000 0.000000 0.000000 0.881096 3.697108 40.541078 -7.906685 1.840277 -19.484236 -7.917875 -5.342720 27.434941 4.193253 -4.245570 -20.518303 0.000000 0.000000 0.000000 -18.930636 -27.539440 20.546062 -12.465741 -38.626251 -0.831768 53.387723 -31.110447 -12.181486 0.000000 0.000000 0.000000 25.538433 2.112379 -9.262037 58.029893 -9.353814 -10.581150 33.798931 51.474808 13.870232 0.000000 0.000000 0.000000 
-0.153041 0.955641 0.941025 -5.993052 -35.668909 18.282039 3.703698 0.851887 -25.160279 -3.788891 1.341812 9.719621 10.335434 18.308076 9.547507 0.000000 0.000000 0.000000 -0.356557 3.479574 -23.309862 3.945220 0.341145 8.969845 -3.430887 -13.425421 7.713719 0.000000 0.000000 0.000000 0.901293 3.638951 40.440332 -7.787662 1.819494 -19.256855 -7.905251 -5.112627 27.243330 4.414441 -4.305795 -20.870632 0.000000 0.000000 0.000000 -18.896380 -27.856717 20.633311 -12.529772 -38.670566 -0.801168 52.809944 -31.496128 -12.226765 0.000000 0.000000 0.000000 25.531795 2.141861 -9.121920 58.262230 -8.926247 -10.448735 32.209951 51.441351 13.191454 0.000000 0.000000 0.000000 
-0.152245 0.955591 0.941098 -5.837482 -35.325914 18.313220 3.584211 0.806870 -25.268823 -3.745826 1.300547 9.539056 10.270369 18.240667 9.468364 0.000000 0.000000 0.000000 -0.533564 3.489605 -23.450945 3.812311 0.354877 9.113888 -3.494941 -13.628672 7.871303 0.000000 0.000000 0.000000 1.125808 3.465039 40.363645 -7.915549 1.858111 -19.322222 -7.672569 -4.994747 27.351877 4.765064 -4.467538 -21.141634 0.000000 0.000000 0.000000 -19.080184 -27.907088 20.712118 -12.455994 -38.846374 -0.837959 52.740078 -31.654614 -12.293229 0.000000 0.000000 0.000000 25.424688 2.078553 -9.018918 58.193763 -8.585127 -10.320517 30.971865 51.099025 12.587785 0.000000 0.000000 0.000000 
-0.151494 0.955623 0.941107 -5.840573 -35.153653 18.425669 3.579593 0.801765 -25.330610 -3.728611 1.276149 9.388027 10.221810 18.173679 9.431163 0.000000 0.000000 0.000000 -0.684811 3.496295 -23.551377 3.852714 0.345537 9.065215 -3.525098 -13.634440 7.778511 0.000000 0.000000 0.000000 1.158096 3.401225 40.229167 -7.689093 1.803031 -19.308277 -7.557666 -4.563859 27.378226 5.324867 -4.672218 -21.829755 0.000000 0.000000 0.000000 -18.737381 -28.098983 20.546052 -12.332003 -38.805373 -0.832400 52.764951 -31.041495 -12.031150 0.000000 0.000000 0.000000 25.281087 2.003785 -8.831291 58.351348 -8.019717 -10.155589 29.085134 50.892050 11.773155 0.000000 0.000000 0.000000 
-0.150889 0.955513 0.941028 -5.727964 -34.940614 18.382944 3.457491 0.746491 -25.268757 -3.624321 1.223027 9.188001 9.957604 17.787498 9.175417 0.000000 0.000000 0.000000 -0.784520 3.489738 -23.581322 3.851539 0.340302 9.041926 -3.657695 -13.797900 7.641833 0.000000 0.000000 0.000000 1.223478 3.285907 39.975099 -7.591714 1.780060 -19.366652 -7.334474 -4.175757 27.340930 5.763175 -4.873950 -21.820418 0.000000 0.000000 0.000000 -18.635215 -28.202962 20.459436 -12.278866 -38.909654 -0.828628 52.678277 -30.469481 -11.758467 0.000000 0.000000 0.000000 25.134389 1.881164 -8.677605 58.287818 -7.508009 -9.952626 27.535160 50.685171 11.111494 0.000000 0.000000 0.000000 
-0.150442 0.955291 0.940857 -5.823865 -34.874799 18.364195 3.616932 0.766394 -25.099851 -3.797972 1.258737 9.057622 10.000165 17.906049 9.051394 0.000000 0.000000 0.000000 -0.552704 3.486402 -23.481753 3.702591 0.352268 9.047703 -3.491127 -13.412272 7.495817 0.000000 0.000000 0.000000 0.980210 3.331016 39.714602 -7.239800 1.685279 -19.351923 -7.127186 -3.735678 27.363466 6.045660 -4.944160 -22.188579 0.000000 0.000000 0.000000 -17.681470 -28.054910 19.823878 -12.784254 -39.009490 -0.638973 52.882796 -30.218248 -11.613526 0.000000 0.000000 0.000000 25.317512 1.906300 -8.574748 58.037473 -7.285349 -9.781407 26.520670 50.931228 10.800873 0.000000 0.000000 0.000000 
-0.150159 0.955239 0.940783 -6.010808 -34.901421 18.271565 3.857401 0.821936 -24.975913 -3.873064 1.314171 9.396756 9.683023 17.488910 8.487934 0.000000 0.000000 0.000000 -0.352911 3.454287 -23.259605 3.724513 0.356119 9.112754 -3.434483 -13.178452 7.294500 0.000000 0.000000 0.000000 0.891703 3.355125 39.636779 -7.195683 1.668623 -19.441736 -6.809039 -3.576692 27.391569 6.152593 -4.977753 -22.407783 0.000000 0.000000 0.000000 -17.323916 -28.002122 19.588652 -12.830120 -38.789779 -0.616254 52.620345 -29.717768 -11.314047 0.000000 0.000000 0.000000 25.390122 2.135211 -8.403367 57.797008 -6.954719 -9.560676 26.098034 51.027649 10.666203 0.000000 0.000000 0.000000 
-0.149904 0.955111 0.940920 -6.125424 -35.189938 18.111701 4.109392 0.875687 -24.623795 -4.147568 1.405692 9.417110 9.775814 17.684337 8.348599 0.000000 0.000000 0.000000 -0.119641 3.440016 -23.068493 3.537801 0.386764 9.243711 -3.173521 -12.597039 7.125498 0.000000 0.000000 0.000000 0.545246 3.501969 39.395136 -6.961915 1.603088 -19.322321 -6.621294 -3.314862 27.361923 6.104717 -4.908416 -22.768470 0.000000 0.000000 0.000000 -16.971325 -27.882774 19.331696 -13.378251 -38.574642 -0.483873 52.443124 -29.034343 -10.918592 0.000000 0.000000 0.000000 25.368539 2.370566 -8.224408 57.885337 -6.804467 -9.506740 25.724924 51.134619 10.526413 0.000000 0.000000 0.000000 
